PathFileType	4	(X/Y/Z)	C:\Users\WrightLab\Desktop\Jo\P2_Trial27.trc
DataRate	CameraRate	NumFrames	NumMarkers	Units	OrigDataRate	OrigDataStartFrame	OrigNumFrames
100.00	100.00	       8	19	mm	100.00	314	       501
Frame#	Time	Headset_Front			Headset_Back			Headset_Left			Headset_Right			Left_Shoulder			Right_Shoulder			Sternum			C7			Left Elbow			Right Elbow			Left Wrist			Right Wrist			Left ASIS			Right ASIS			S2			Left Knee			Right Knee			Left Ankle			Right Ankle			
		X1	Y1	Z1	X2	Y2	Z2	X3	Y3	Z3	X4	Y4	Z4	X5	Y5	Z5	X6	Y6	Z6	X7	Y7	Z7	X8	Y8	Z8	X9	Y9	Z9	X10	Y10	Z10	X11	Y11	Z11	X12	Y12	Z12	X13	Y13	Z13	X14	Y14	Z14	X15	Y15	Z15	X16	Y16	Z16	X17	Y17	Z17	X18	Y18	Z18	X19	Y19	Z19	

314	3.130	-89.24682	1413.85693	1019.77985	-123.99463	1655.98926	833.30780				-203.88547	1502.66675	981.97528	-16.98866	1423.38904	714.05292	-291.80228	1395.68787	890.21161	-107.67064	1295.89307	856.35095	-227.33833	1415.28601	715.93225	88.76061	1101.31738	572.71368	-423.57385	1077.20239	884.96637	138.78403	881.73029	502.12039	-468.84320	834.87598	939.77258	-18.93186	1016.83331	815.51324	-130.85947	970.34381	877.40668	-176.87936	924.86475	609.52686	184.73805	494.25769	733.53046	-83.68094	514.94336	829.27997	204.06992	136.54759	719.65100	-233.79860	320.27701	699.69739	
315	3.140	-83.64565	1414.42554	1033.81116	-117.65764	1657.35095	847.75800				-197.97032	1502.82813	994.45673	-9.38066	1422.80273	728.13464	-287.53036	1397.60535	900.52582	-103.85357	1296.63281	869.21259	-218.93047	1416.91541	726.82404	99.67704	1101.09863	588.97644	-421.00372	1079.83118	888.34418	154.20238	880.80225	521.55127	-467.46207	836.35236	939.32983	-15.67046	1017.14630	829.17542	-130.14551	971.54407	886.72333	-170.95824	928.70752	618.98120	186.68199	493.94653	739.23029	-64.59586	531.85864	858.19427	203.61865	135.44579	721.41675	-198.29434	328.53210	720.03778	
316	3.150	-78.13602	1414.43384	1045.85901	-111.54005	1658.32263	861.32471				-193.17546	1503.16321	1006.71228	-1.73822	1421.88171	742.15411	-282.75119	1399.20264	910.50012	-99.90343	1296.75610	880.55060	-210.97569	1418.91528	738.45398	110.73882	1100.53271	604.49402	-417.68298	1082.11157	891.14740	171.26530	880.47534	543.87988	-465.59763	837.42419	936.42780	-13.33283	1017.52808	841.76251	-129.23630	973.42780	900.57330	-164.46152	931.24255	628.69623	187.73613	493.24957	743.96381	-56.54827	544.11914	877.06793	203.35100	133.52748	724.02985	-163.39081	335.68347	740.93610	
317	3.160	-74.26147	1415.18286	1059.81726	-104.81226	1658.53467	874.84216				-187.99147	1502.69519	1018.85199	5.66930	1420.30383	755.21735	-277.98590	1401.22852	920.28241	-96.37995	1296.30432	892.11658	-202.83394	1420.47742	749.62494	122.13487	1099.95068	620.51074	-414.30536	1084.81128	894.19446	186.60854	881.36273	564.32574	-463.97641	838.92603	933.31604	-10.93878	1017.48633	856.02838	-128.00783	974.49646	909.48920	-157.94389	933.86115	637.78748	188.57396	491.88489	748.11530	-50.88355	549.70435	898.08289	202.66354	132.52109	725.36053	-129.09746	342.33911	762.64178	
318	3.170	-68.57895	1415.27356	1072.18042	-98.15328	1659.14819	888.24628				-183.11671	1502.61084	1030.53992	12.90421	1418.66858	769.62885	-273.89056	1402.83752	930.68402	-92.47219	1296.46033	904.59473	-194.68173	1422.03455	760.85217	132.84076	1098.71423	637.17822	-410.83096	1087.20898	896.04651	198.44115	877.61212	584.50903	-463.18756	841.47888	929.66833	-9.40451	1017.77460	868.14142	-127.85138	975.28906	919.41309	-151.29202	935.79706	647.49866	189.49133	490.76920	752.17035	-52.41898	556.32104	922.11322	202.62611	131.65900	726.86102	-94.53828	347.79645	784.44104	
319	3.180	-64.51460	1415.48608	1086.72742	-92.26195	1659.78711	901.75378				-178.87181	1503.12219	1042.69788	20.81702	1417.47791	783.48615	-268.81833	1404.92346	940.71643	-90.23650	1295.69141	917.46918	-187.03967	1423.93591	772.40771	143.63663	1097.03662	654.45502	-407.47705	1089.94385	898.69354	213.90604	877.19836	609.43787	-461.45190	843.64850	926.36884	-8.35490	1018.21564	881.94946	-127.76630	976.16376	930.19769	-145.57011	937.38654	657.26642	189.96967	488.90305	756.25201	-57.28648	561.58319	947.89758	202.32018	130.67484	728.61035	-68.47311	349.78540	809.48462	
320	3.190	-60.25041	1415.48889	1099.49475	-85.51640	1660.02368	914.84973				-173.40701	1503.28516	1055.19043	28.07575	1416.51575	798.00549	-264.43185	1406.19641	950.98096	-88.08755	1295.70642	928.69897	-178.87140	1425.71362	783.53973	153.60118	1095.62390	671.42291	-403.95633	1092.63818	900.98743	222.82802	875.52106	626.74689	-460.67398	846.29907	923.42651	-7.18374	1017.69690	893.57916	-127.36357	976.38147	941.13080	-139.89558	938.42035	667.50641	190.86507	487.84982	758.97479	-62.19310	567.38348	971.31573	201.82889	128.70674	729.92004	-54.45936	345.04089	838.04657	
321	3.200	-56.08619	1415.21838	1111.89929	-79.15518	1660.31897	928.17523				-168.49796	1503.69604	1067.36902	35.38843	1415.77100	812.32269	-259.18729	1407.95398	961.89838	-85.26482	1294.80493	940.22125	-171.37311	1427.52844	795.22577	164.02032	1093.92407	689.88214	-400.89856	1096.09290	903.96082	235.51822	876.90570	653.07916	-459.07855	848.89404	919.90509	-5.86329	1017.77600	906.66260	-126.93560	976.51880	952.04419	-134.06490	939.40717	677.12622	190.19896	485.11310	762.16528	-69.66066	570.82697	998.84430	202.04369	127.21146	731.72101	-37.85995	338.96146	866.59821	
